<svg width="32" height="26" viewBox="0 0 32 26" fill="none" xmlns="http://www.w3.org/2000/svg">
<path d="M26 0C29.3137 3.22139e-07 32 2.68629 32 6V20C32 23.3137 29.3137 26 26 26H15V24H26C28.2091 24 30 22.2091 30 20V6C30 3.79086 28.2091 2 26 2H6C3.79086 2 2 3.79086 2 6V11H0V6C0 2.68629 2.68629 8.0532e-08 6 0H26Z" fill="#D9D9D9"/>
<g clip-path="url(#clip0_89_8)">
<rect x="-6" y="22" width="10" height="10" rx="5" fill="#D9D9D9"/>
<circle cx="-0.5" cy="26.5" r="6.5" stroke="#D9D9D9" stroke-width="2"/>
<circle cy="26" r="9" stroke="#D9D9D9" stroke-width="2"/>
<circle cy="26" r="12" stroke="#D9D9D9" stroke-width="2"/>
</g>
<rect x="0.5" y="10.5" width="1" height="1" rx="0.5" fill="#D9D9D9" stroke="#D9D9D9"/>
<rect x="14.5" y="24.5" width="1" height="1" rx="0.5" fill="#D9D9D9" stroke="#D9D9D9"/>
<defs>
<clipPath id="clip0_89_8">
<path d="M0 13H13V26H6C2.68629 26 0 23.3137 0 20V13Z" fill="white"/>
</clipPath>
</defs>
</svg>
