<svg width="32" height="26" viewBox="0 0 32 26" fill="none" xmlns="http://www.w3.org/2000/svg">
<path d="M26 0C29.3137 3.22139e-07 32 2.68629 32 6V12H30V6C30 3.79086 28.2091 2 26 2H6C3.79086 2 2 3.79086 2 6V20C2 22.2091 3.79086 24 6 24H15V26H6C2.68629 26 0 23.3137 0 20V6C0 2.68629 2.68629 8.0532e-08 6 0H26Z" fill="#D9D9D9"/>
<rect x="17" y="14" width="14" height="11" rx="5" stroke="#D9D9D9" stroke-width="2"/>
<rect x="30.5" y="11.5" width="1" height="1" rx="0.5" fill="#D9D9D9" stroke="#D9D9D9"/>
<rect x="14.5" y="24.5" width="1" height="1" rx="0.5" fill="#D9D9D9" stroke="#D9D9D9"/>
</svg>
