<svg width="28" height="30" viewBox="0 0 28 30" fill="none" xmlns="http://www.w3.org/2000/svg">
<path d="M11.3838 3.20117C12.7761 1.63473 15.2239 1.63473 16.6162 3.20117L17.7256 4.4502C18.6564 5.49745 19.9011 6.21549 21.2734 6.49805L22.9102 6.83496C24.9628 7.25752 26.1868 9.37726 25.5264 11.3662L25 12.9512C24.5584 14.281 24.5584 15.719 25 17.0488L25.5264 18.6338C26.1868 20.6227 24.9628 22.7425 22.9102 23.165L21.2734 23.502C19.9011 23.7845 18.6564 24.5025 17.7256 25.5498L16.6162 26.7988C15.2239 28.3653 12.7761 28.3653 11.3838 26.7988L10.2744 25.5498C9.34358 24.5025 8.09891 23.7845 6.72656 23.502L5.08984 23.165C3.03717 22.7425 1.81321 20.6227 2.47363 18.6338L3 17.0488C3.44159 15.719 3.44159 14.281 3 12.9512L2.47363 11.3662C1.81321 9.37726 3.03717 7.25752 5.08984 6.83496L6.72656 6.49805C8.09891 6.21549 9.34358 5.49745 10.2744 4.4502L11.3838 3.20117Z" fill="url(#paint0_radial_25_325)" stroke="#D9D9D9" stroke-width="3" stroke-miterlimit="1.06761"/>
<defs>
<radialGradient id="paint0_radial_25_325" cx="0" cy="0" r="1" gradientUnits="userSpaceOnUse" gradientTransform="translate(14 15) rotate(90) scale(17)">
<stop stop-color="#646464" stop-opacity="0"/>
<stop offset="0.29" stop-color="#646464" stop-opacity="0"/>
<stop offset="0.302885" stop-color="#D9D9D9"/>
</radialGradient>
</defs>
</svg>
