<svg width="23" height="21" viewBox="0 0 23 21" fill="none" xmlns="http://www.w3.org/2000/svg">
<path d="M1.35556 10.7629C0.99054 10.3772 0.990554 9.77357 1.35559 9.38796L7.23841 3.17363C7.86001 2.517 8.96464 2.95693 8.96462 3.86112L8.96433 16.2901C8.96431 17.1943 7.85966 17.6341 7.23809 16.9775L1.35556 10.7629Z" fill="#D9D9D9"/>
<rect y="7" width="4" height="6" rx="1" fill="#D9D9D9"/>
<g clip-path="url(#clip0_25_317)">
<path d="M7.5 4.00012C10.4691 4.00012 13 6.61533 13 10.0001C13 13.3849 10.4691 16.0001 7.5 16.0001C4.53093 16.0001 2 13.3849 2 10.0001C2 6.61533 4.53093 4.00012 7.5 4.00012Z" stroke="#D9D9D9" stroke-width="2"/>
<path d="M7.5 0.000122011C12.7034 0.000122011 17 4.43292 17 10.0001C17 15.5673 12.7034 20.0001 7.5 20.0001C2.29662 20.0001 -2 15.5673 -2 10.0001C-2 4.43292 2.29662 0.000122011 7.5 0.000122011Z" stroke="#D9D9D9" stroke-width="2"/>
</g>
<defs>
<clipPath id="clip0_25_317">
<rect width="12" height="12" fill="white" transform="translate(6 10.4854) rotate(-45)"/>
</clipPath>
</defs>
</svg>
